<svg width="27" height="27" viewBox="0 0 27 27" fill="none" xmlns="http://www.w3.org/2000/svg">
<path d="M13.32 0C5.96 0 0 5.97333 0 13.3333C0 20.6933 5.96 26.6667 13.32 26.6667C20.6933 26.6667 26.6667 20.6933 26.6667 13.3333C26.6667 5.97333 20.6933 0 13.32 0ZM13.3333 24C7.44 24 2.66667 19.2267 2.66667 13.3333C2.66667 7.44 7.44 2.66667 13.3333 2.66667C19.2267 2.66667 24 7.44 24 13.3333C24 19.2267 19.2267 24 13.3333 24ZM18 12C19.1067 12 20 11.1067 20 10C20 8.89333 19.1067 8 18 8C16.8933 8 16 8.89333 16 10C16 11.1067 16.8933 12 18 12ZM8.66667 12C9.77333 12 10.6667 11.1067 10.6667 10C10.6667 8.89333 9.77333 8 8.66667 8C7.56 8 6.66667 8.89333 6.66667 10C6.66667 11.1067 7.56 12 8.66667 12ZM13.3333 20.6667C16.44 20.6667 19.08 18.72 20.1467 16H6.52C7.58667 18.72 10.2267 20.6667 13.3333 20.6667Z" fill="#46F4DB"/>
</svg>
